<svg height="512pt" viewBox="0 0 512 512" width="512pt" xmlns="http://www.w3.org/2000/svg"><path d="m501.964844 256c0-135.863281-110.128906-246-245.980469-246-135.855469 0-245.984375 110.136719-245.984375 246s110.128906 246 245.984375 246c135.851563 0 245.980469-110.136719 245.980469-246zm0 0" fill="#ffc838"/><path d="m255.984375 512c-68.378906 0-132.660156-26.628906-181.007813-74.980469-48.347656-48.351562-74.976562-112.640625-74.976562-181.019531s26.628906-132.667969 74.976562-181.019531c48.347657-48.351563 112.628907-74.980469 181.007813-74.980469 68.375 0 132.65625 26.628906 181.007813 74.980469 48.347656 48.351562 74.972656 112.640625 74.972656 181.019531s-26.625 132.667969-74.976563 181.019531c-48.347656 48.351563-112.628906 74.980469-181.003906 74.980469zm0-492c-130.125 0-235.984375 105.867188-235.984375 236s105.859375 236 235.984375 236c130.121094 0 235.980469-105.867188 235.980469-236s-105.859375-236-235.980469-236zm0 0"/><path d="m449.476562 256c0-106.871094-86.632812-193.503906-193.492187-193.503906-106.863281 0-193.492187 86.632812-193.492187 193.503906s86.628906 193.503906 193.492187 193.503906c106.859375 0 193.492187-86.632812 193.492187-193.503906zm0 0" fill="#fbe37b"/><path d="m378.652344 116.351562c-.648438 0-1.300782-.070312-1.949219-.203124-.640625-.128907-1.269531-.320313-1.871094-.570313-.597656-.25-1.179687-.558594-1.730469-.917969-.539062-.359375-1.058593-.78125-1.519531-1.238281-.460937-.460937-.878906-.972656-1.238281-1.523437-.359375-.539063-.671875-1.117188-.921875-1.726563-.25-.601563-.4375-1.230469-.570313-1.871094-.128906-.640625-.199218-1.300781-.199218-1.949219 0-.652343.070312-1.3125.199218-1.960937.132813-.628906.320313-1.261719.570313-1.871094.25-.597656.5625-1.179687.921875-1.71875.359375-.550781.777344-1.0625 1.238281-1.519531.460938-.460938.980469-.882812 1.519531-1.25.542969-.359375 1.132813-.660156 1.730469-.910156.601563-.25 1.230469-.449219 1.871094-.570313 1.289063-.261719 2.621094-.261719 3.910156 0 .640625.121094 1.257813.320313 1.871094.570313.597656.25 1.179687.550781 1.71875.910156.550781.367188 1.058594.789062 1.519531 1.25.460938.457031.878906.96875 1.25 1.519531.359375.539063.671875 1.121094.921875 1.71875.25.609375.4375 1.242188.570313 1.871094.128906.648437.1875 1.308594.1875 1.960937 0 .648438-.058594 1.308594-.1875 1.949219-.132813.640625-.320313 1.269531-.570313 1.871094-.25.609375-.5625 1.1875-.921875 1.726563-.371094.550781-.789062 1.0625-1.25 1.523437-1.859375 1.859375-4.429687 2.929687-7.070312 2.929687zm0 0"/><path d="m255.984375 459.503906c-112.207031 0-203.492187-91.289062-203.492187-203.503906s91.285156-203.503906 203.492187-203.503906c29.160156 0 57.320313 6.039062 83.691406 17.957031 5.035157 2.273437 7.269531 8.195313 4.996094 13.230469-2.273437 5.03125-8.199219 7.269531-13.230469 4.996094-23.765625-10.738282-49.15625-16.183594-75.457031-16.183594-101.179687 0-183.492187 82.320312-183.492187 183.503906s82.3125 183.503906 183.492187 183.503906c101.175781 0 183.492187-82.320312 183.492187-183.503906 0-39.929688-12.601562-77.890625-36.441406-109.773438-3.304687-4.421874-2.398437-10.691406 2.023438-13.996093 4.421875-3.308594 10.6875-2.402344 13.996094 2.019531 26.441406 35.367188 40.421874 77.46875 40.421874 121.75 0 112.214844-91.289062 203.503906-203.492187 203.503906zm0 0"/><path d="m181.347656 347.105469h149.269532c9.09375 0 16.464843-7.371094 16.464843-16.464844v-149.285156c0-9.089844-7.371093-16.460938-16.464843-16.460938h-149.269532c-9.09375 0-16.464844 7.371094-16.464844 16.460938v149.285156c0 9.09375 7.371094 16.464844 16.464844 16.464844zm0 0" fill="#e6c8a0"/><path d="m330.621094 357.105469h-149.273438c-14.59375 0-26.464844-11.871094-26.464844-26.464844v-149.285156c0-14.589844 11.871094-26.460938 26.464844-26.460938h149.269532c14.59375 0 26.464843 11.871094 26.464843 26.460938v149.285156c0 14.59375-11.871093 26.464844-26.460937 26.464844zm-149.273438-182.210938c-3.566406 0-6.464844 2.898438-6.464844 6.464844v149.285156c0 3.5625 2.898438 6.460938 6.464844 6.460938h149.269532c3.566406 0 6.464843-2.898438 6.464843-6.460938v-149.289062c0-3.5625-2.898437-6.460938-6.464843-6.460938zm0 0"/><path d="m203.675781 203.691406h104.613281v104.617188h-104.613281zm0 0" fill="#fff"/><path d="m308.289062 318.308594h-104.613281c-5.523437 0-10-4.476563-10-10v-104.617188c0-5.523437 4.476563-10 10-10h104.613281c5.523438 0 10 4.476563 10 10v104.617188c0 5.523437-4.476562 10-10 10zm-94.613281-20h84.613281v-84.617188h-84.613281zm0 0"/></svg>